G04*
G04 #@! TF.GenerationSoftware,Altium Limited,Altium Designer,25.2.1 (25)*
G04*
G04 Layer_Color=32896*
%FSLAX44Y44*%
%MOMM*%
G71*
G04*
G04 #@! TF.SameCoordinates,9DBAF68E-55E7-41F9-A940-57863198C997*
G04*
G04*
G04 #@! TF.FilePolarity,Positive*
G04*
G01*
G75*
%ADD10C,0.2000*%
%ADD11C,0.2540*%
%ADD23R,1.3518X0.2949*%
D10*
X148000Y41000D02*
Y71000D01*
X162000Y41000D02*
Y71000D01*
X148000Y41000D02*
X162000D01*
X148000Y71000D02*
X162000D01*
X165000Y106000D02*
Y144000D01*
X145000D02*
X165000D01*
X145000Y106000D02*
X165000D01*
X145000D02*
Y144000D01*
D11*
X167696Y32617D02*
Y17383D01*
X160078D01*
X157539Y19922D01*
Y30078D01*
X160078Y32617D01*
X167696D01*
X142304Y17383D02*
X152461D01*
X142304Y27539D01*
Y30078D01*
X144843Y32617D01*
X149922D01*
X152461Y30078D01*
X167696Y152382D02*
Y167617D01*
X160078D01*
X157539Y165078D01*
Y160000D01*
X160078Y157461D01*
X167696D01*
X162617D02*
X157539Y152382D01*
X142304D02*
X152461D01*
X142304Y162539D01*
Y165078D01*
X144843Y167617D01*
X149922D01*
X152461Y165078D01*
D23*
X154759Y42526D02*
D03*
M02*
